<svg width="992" height="226" viewBox="0 0 992 226" fill="none" xmlns="http://www.w3.org/2000/svg">
<circle cx="160" cy="60" r="20" fill="#57B037"/>
<path d="M150.684 59.1218L157.763 66.1432L169.333 54.6667" stroke="white" stroke-width="4.30362"/>
<path d="M130.131 105.611H127.881V113.61H130.131V110.559H132.281V108.713H130.131V105.611ZM121.852 113.331C124.3 113.337 126.134 111.827 126.134 109.726C126.134 107.588 124.3 106.108 121.852 106.102C119.39 106.108 117.538 107.588 117.55 109.726C117.538 111.827 119.39 113.337 121.852 113.331ZM119.732 109.726C119.72 108.601 120.615 107.923 121.852 107.917C123.07 107.923 123.959 108.601 123.965 109.726C123.959 110.851 123.07 111.559 121.852 111.559C120.615 111.559 119.72 110.851 119.732 109.726ZM130.131 118.614V114.251H119.515V115.979H127.893V116.992H119.539V121.442H130.59V119.677H121.752V118.614H130.131ZM144.133 115.121H146.383V105.636H144.133V115.121ZM142.741 112.305C140.59 112.66 138.707 112.728 136.041 112.734V111.342H141.231V106.55H133.816V108.309H139.012V109.639H133.834V114.568H135.239C138.415 114.568 140.572 114.487 143.021 114.095L142.741 112.305ZM146.383 121.442V115.817H135.662V121.442H146.383ZM144.183 117.595V119.646H137.874V117.595H144.183ZM161.091 107.277V105.599H158.872V107.277H153.396V109.073H166.53V107.277H161.091ZM159.985 115.177C163.428 115.177 165.498 114.207 165.504 112.448C165.498 110.664 163.428 109.701 159.985 109.701C156.535 109.701 154.459 110.664 154.465 112.448C154.459 114.207 156.535 115.177 159.985 115.177ZM159.985 111.36C162.104 111.36 163.167 111.709 163.18 112.448C163.167 113.169 162.104 113.517 159.985 113.511C157.847 113.517 156.79 113.169 156.796 112.448C156.79 111.709 157.847 111.36 159.985 111.36ZM152.7 115.96V117.775H158.872V121.635H161.091V117.775H167.331V115.96H152.7ZM183.649 109.334V110.733H179.994V112.436H183.649V113.679H185.887V105.611H183.649V107.631H180.628C180.691 107.19 180.728 106.73 180.728 106.245H173.499V108.041H178.248C177.956 109.962 176.265 111.485 172.598 112.212L173.356 114.033C176.893 113.269 179.174 111.733 180.162 109.334H183.649ZM177.514 118.633H185.887V114.251H175.246V116.01H183.637V116.973H175.271V121.461H186.241V119.683H177.514V118.633ZM199.666 121.622H201.785V105.611H199.666V121.622ZM194.308 111.106V112.908H196.415V120.876H198.516V105.878H196.415V111.106H194.308ZM193.021 109.048H195.445V107.252H188.235V109.048H190.858V109.9C190.858 112.622 189.982 115.494 187.626 116.948L188.981 118.602C190.442 117.694 191.405 116.115 191.965 114.244C192.505 115.966 193.438 117.396 194.874 118.235L196.185 116.588C193.848 115.251 193.015 112.566 193.021 109.9V109.048Z" fill="#212121"/>
<path d="M107.394 135.381V149.293H108.62V135.381H107.394ZM97.9795 136.751V145.779H104.399V136.751H97.9795ZM103.206 137.735V144.773H99.195V137.735H103.206ZM121.255 149.293H122.471V135.381H121.255V149.293ZM113.067 141.613H118.25V136.674H111.786V137.691H117.012V140.608H111.808V145.923H112.968C115.366 145.923 117.476 145.823 120.029 145.414L119.907 144.387C117.421 144.79 115.371 144.89 113.067 144.895V141.613ZM139.707 135.381H138.48V142.453H139.707V139.425H141.795V138.398H139.707V135.381ZM136.325 138.972C136.325 137.149 134.812 135.901 132.723 135.89C130.635 135.901 129.099 137.149 129.11 138.972C129.099 140.796 130.635 142.055 132.723 142.055C134.812 142.055 136.325 140.796 136.325 138.972ZM130.314 138.972C130.303 137.768 131.331 136.906 132.723 136.917C134.104 136.906 135.132 137.768 135.132 138.972C135.132 140.188 134.104 141.061 132.723 141.061C131.331 141.061 130.303 140.188 130.314 138.972ZM139.707 146.497V143.116H130.845V144.099H138.491V145.569H130.878V149.083H140.215V148.088H132.082V146.497H139.707ZM152.916 143.624H154.143V135.392H152.916V143.624ZM151.181 141.492C148.938 141.851 147.082 141.934 144.596 141.923V140H149.723V136.232H143.369V137.227H148.507V139.028H143.402V142.95H144.529C147.093 142.95 148.993 142.873 151.336 142.508L151.181 141.492ZM154.143 149.083V144.376H145.104V149.083H154.143ZM152.938 145.37V148.077H146.319V145.37H152.938ZM162.821 140.453C165.915 140.442 167.728 139.591 167.728 138.022C167.728 136.475 165.915 135.624 162.821 135.624C159.728 135.624 157.904 136.475 157.904 138.022C157.904 139.591 159.728 140.442 162.821 140.453ZM162.821 136.552C165.131 136.552 166.479 137.105 166.479 138.022C166.479 138.983 165.131 139.514 162.821 139.514C160.523 139.514 159.175 138.983 159.186 138.022C159.175 137.105 160.523 136.552 162.821 136.552ZM156.501 142.387H169.164V141.392H156.501V142.387ZM167.529 146.696V143.591H158.037V144.53H166.324V145.79H158.07V149.116H167.949V148.144H159.275V146.696H167.529ZM177.185 142.055V137.691H185.428V136.674H175.969V143.072H185.56V142.055H177.185ZM174.345 147.37H187.063V146.343H174.345V147.37ZM198.46 138.552H195.665V139.58H198.46V142.343H195.565V143.381H198.46V149.293H199.676V135.381H198.46V138.552ZM189.919 141.58H194.77V136.641H188.659V137.657H193.565V140.586H188.703V146.044H189.731C191.952 146.044 193.731 145.967 195.952 145.624L195.841 144.597C193.736 144.917 192.013 145 189.919 145.006V141.58ZM211.559 142.674C212.708 142.055 213.404 141.072 213.404 139.834C213.404 137.68 211.294 136.265 208.321 136.254C205.36 136.265 203.25 137.68 203.25 139.834C203.25 141.088 203.968 142.088 205.15 142.707V146.453H202.001V147.481H214.719V146.453H211.559V142.674ZM204.432 139.834C204.432 138.276 206.045 137.249 208.321 137.26C210.587 137.249 212.222 138.276 212.222 139.834C212.222 141.381 210.587 142.42 208.321 142.42C206.045 142.42 204.432 141.381 204.432 139.834ZM206.355 143.16C206.951 143.309 207.609 143.392 208.321 143.392C209.045 143.392 209.719 143.309 210.321 143.155V146.453H206.355V143.16ZM216.547 136.685L216.658 144.807H217.973L218.083 136.685H216.547ZM217.321 148.088C217.873 148.088 218.326 147.635 218.326 147.083C218.326 146.53 217.873 146.077 217.321 146.077C216.768 146.077 216.304 146.53 216.315 147.083C216.304 147.635 216.768 148.088 217.321 148.088ZM63.6758 164.928C66.0073 164.735 68.1012 164.006 68.952 162.685C69.8028 164.006 71.8968 164.735 74.2172 164.928L74.5929 163.989C72.0294 163.823 69.8581 162.95 69.6371 161.558H73.9962V160.597H69.5542V159.304H68.3498V160.597H63.9299V161.558H68.2614C68.0349 162.95 65.8636 163.823 63.3111 163.989L63.6758 164.928ZM75.278 165.569H62.6371V166.508H68.3387V167.812H64.1619V168.729H72.4492V169.945H64.1951V173.116H74.0736V172.166H65.3995V170.818H73.6537V167.812H69.5542V166.508H75.278V165.569ZM86.3658 162.166C86.3547 163.834 86.3547 165.779 85.8354 168.431L87.0729 168.575C87.5812 165.779 87.5812 163.878 87.5923 162.166V160.785H77.8022V161.801H86.3658V162.166ZM82.631 165.315H81.4155V170.276H76.4542V171.304H89.1171V170.276H82.631V165.315ZM104.541 167.779H105.768V159.381H104.541V167.779ZM98.7068 164C99.3311 165.464 100.618 166.608 102.232 167.149L102.861 166.199C100.784 165.525 99.3034 163.823 99.3034 161.956V161.359H102.497V160.354H94.8172V161.359H98.0659V161.956C98.0548 163.923 96.5852 165.735 94.4968 166.475L95.1377 167.425C96.7951 166.829 98.0935 165.58 98.7068 164ZM104.541 169.525V173.271H105.768V168.519H96.4195V169.525H104.541ZM115.551 164.243H118.413V169.58H119.64V159.392H118.413V163.238H115.551V164.243ZM112.358 164.304C112.96 165.74 114.17 166.906 115.739 167.47L116.38 166.486C114.347 165.79 112.955 164.044 112.955 162.254V161.536H116.06V160.519H108.579V161.536H111.717V162.254C111.717 164.243 110.237 166.077 108.181 166.796L108.822 167.801C110.474 167.182 111.756 165.906 112.358 164.304ZM111.949 168.663H110.723V172.961H120.027V171.945H111.949V168.663ZM132.672 173.271H133.855V159.381H132.672V173.271ZM128.092 164.796C127.938 162.177 126.794 160.552 125.103 160.552C123.302 160.552 122.131 162.42 122.131 165.37C122.131 168.331 123.302 170.21 125.103 170.199C126.822 170.21 127.976 168.519 128.098 165.812H129.888V172.564H131.07V159.68H129.888V164.796H128.092ZM125.103 169.039C123.987 169.05 123.269 167.624 123.28 165.37C123.269 163.116 123.987 161.702 125.103 161.702C126.241 161.702 126.96 163.116 126.96 165.37C126.96 167.624 126.241 169.05 125.103 169.039ZM146.644 159.37H145.418V169.558H146.644V164.641H148.733V163.602H146.644V159.37ZM136.379 160.641V167.039H142.799V160.641H136.379ZM137.572 166.044V161.646H141.605V166.044H137.572ZM137.948 168.597V172.961H147.285V171.945H139.164V168.597H137.948ZM163.913 162.387V164.055H160.201V165.028H163.913V166.486H165.14V159.381H163.913V161.403H160.698C160.786 160.983 160.83 160.541 160.83 160.077H154.565V161.094H159.471C159.25 163.331 157.267 164.989 153.858 165.779L154.3 166.796C157.383 166.061 159.538 164.575 160.405 162.387H163.913ZM157.383 170.497H165.14V167.116H156.134V168.11H163.913V169.558H156.167V173.138H165.615V172.133H157.383V170.497ZM178.15 173.271H179.322V159.381H178.15V173.271ZM173.012 164.387V165.392H175.355V172.541H176.515V159.713H175.355V164.387H173.012ZM171.532 162.033H174.073V161.017H167.664V162.033H170.349V163.337C170.349 165.867 169.222 168.409 167.288 169.569L168.062 170.486C169.454 169.613 170.46 167.983 170.957 166.072C171.449 167.84 172.421 169.337 173.786 170.155L174.526 169.249C172.614 168.144 171.532 165.746 171.532 163.337V162.033ZM192.034 165.028V159.381H190.807V173.26H192.034V166.066H194.288V165.028H192.034ZM182.023 160.873V161.901H187.194C186.918 165.199 184.962 167.873 181.371 169.657L182.056 170.619C186.586 168.387 188.431 164.807 188.443 160.873H182.023ZM209.369 159.392V169.58H210.596V159.392H209.369ZM203.535 164.403C204.159 165.867 205.446 167.011 207.06 167.558L207.69 166.586C205.612 165.923 204.132 164.232 204.132 162.354V161.547H207.325V160.541H199.645V161.547H202.894V162.354C202.883 164.331 201.413 166.133 199.325 166.862L199.966 167.845C201.623 167.238 202.922 165.989 203.535 164.403ZM202.85 168.608H201.623V172.961H211.027V171.945H202.85V168.608ZM223.584 164.188V168.177H224.744V159.381H223.584V163.171H221.717V159.657H220.567V167.68H221.717V164.188H223.584ZM217.065 161.05V159.481H215.849V161.05H212.877V162.033H220.004V161.05H217.065ZM219.44 165.149C219.429 163.702 218.214 162.773 216.446 162.773C214.7 162.773 213.473 163.702 213.485 165.149C213.473 166.586 214.7 167.514 216.446 167.514C218.214 167.514 219.429 166.586 219.44 165.149ZM214.578 165.149C214.578 164.276 215.341 163.691 216.446 163.691C217.562 163.691 218.324 164.276 218.324 165.149C218.324 166.011 217.562 166.597 216.446 166.597C215.341 166.597 214.578 166.011 214.578 165.149ZM220.159 168.409C217.23 168.409 215.485 169.282 215.496 170.84C215.485 172.365 217.23 173.238 220.159 173.238C223.076 173.238 224.822 172.365 224.822 170.84C224.822 169.282 223.076 168.409 220.159 168.409ZM220.159 172.276C217.993 172.287 216.7 171.746 216.711 170.84C216.7 169.89 217.993 169.359 220.159 169.37C222.313 169.359 223.595 169.89 223.606 170.84C223.595 171.746 222.313 172.287 220.159 172.276ZM237.401 165.171H235.677V159.691H234.528V172.53H235.677V166.177H237.401V173.271H238.594V159.381H237.401V165.171ZM230.97 166.387H233.39V165.381H228.561V161.812H233.268V160.796H227.357V166.387H229.788V169.171C228.622 169.204 227.501 169.215 226.605 169.215L226.793 170.254C228.683 170.254 231.655 170.188 233.954 169.801L233.887 168.906C233.009 169.011 231.992 169.083 230.97 169.127V166.387ZM250.168 166.674C251.318 166.055 252.014 165.072 252.014 163.834C252.014 161.68 249.903 160.265 246.931 160.254C243.97 160.265 241.859 161.68 241.859 163.834C241.859 165.088 242.577 166.088 243.76 166.707V170.453H240.61V171.481H253.329V170.453H250.168V166.674ZM243.041 163.834C243.041 162.276 244.655 161.249 246.931 161.26C249.196 161.249 250.831 162.276 250.831 163.834C250.831 165.381 249.196 166.42 246.931 166.42C244.655 166.42 243.041 165.381 243.041 163.834ZM244.964 167.16C245.561 167.309 246.218 167.392 246.931 167.392C247.655 167.392 248.329 167.309 248.931 167.155V170.453H244.964V167.16ZM255.908 172.088C256.461 172.088 256.914 171.635 256.914 171.083C256.914 170.53 256.461 170.077 255.908 170.077C255.356 170.077 254.892 170.53 254.903 171.083C254.892 171.635 255.356 172.088 255.908 172.088Z" fill="#414B5A"/>
<rect x="0.5" y="0.5" width="319" height="225" rx="7.5" stroke="#E5E7EB"/>
<circle cx="496" cy="60" r="20" fill="#57B037"/>
<path d="M486.684 59.1218L493.763 66.1432L505.333 54.6667" stroke="white" stroke-width="4.30362"/>
<path d="M444.795 111.727V105.611H442.551V121.622H444.795V113.598H447.157V111.727H444.795ZM438.083 108.992H441.302V107.159H432.439V108.992H435.826V109.974C435.814 112.622 434.471 115.599 431.805 116.843L433.11 118.614C434.95 117.744 436.268 115.954 436.989 113.834C437.697 115.755 438.965 117.383 440.749 118.204L441.998 116.445C439.369 115.233 438.07 112.417 438.083 109.974V108.992ZM454.988 113.287C458.425 113.294 460.824 111.926 460.824 109.769C460.824 107.563 458.425 106.152 454.988 106.152C451.557 106.152 449.176 107.563 449.183 109.769C449.176 111.926 451.557 113.294 454.988 113.287ZM454.988 107.942C457.151 107.948 458.506 108.588 458.506 109.769C458.506 110.894 457.151 111.516 454.988 111.522C452.844 111.516 451.482 110.894 451.495 109.769C451.482 108.588 452.844 107.948 454.988 107.942ZM447.716 114.524V116.327H451.066V121.622H453.366V116.327H456.647V121.622H458.922V116.327H462.347V114.524H447.716ZM471.682 115.581H476.611V113.76H467.213V111.957H476.238V106.655H464.951V108.458H474.019V110.198H464.975V115.581H469.463V117.999H463.291V119.832H477.922V117.999H471.682V115.581ZM486.132 112.541C489.607 112.541 491.913 111.28 491.919 109.247C491.913 107.215 489.607 105.934 486.132 105.928C482.658 105.934 480.333 107.215 480.339 109.247C480.333 111.28 482.658 112.541 486.132 112.541ZM486.132 107.7C488.202 107.693 489.513 108.228 489.513 109.247C489.513 110.223 488.202 110.745 486.132 110.751C484.075 110.745 482.751 110.223 482.763 109.247C482.751 108.228 484.075 107.693 486.132 107.7ZM478.829 115.195H485.138V117.98H487.413V115.195H493.46V113.418H478.829V115.195ZM480.569 116.55V121.343H491.85V119.521H482.832V116.55H480.569ZM510.269 111.727H508.827V105.86H506.708V120.883H508.827V113.555H510.269V121.622H512.413V105.611H510.269V111.727ZM501.114 110.652V107.041H499V117.825H505.371V107.041H503.295V110.652H501.114ZM501.114 116.028V112.411H503.295V116.028H501.114ZM521.357 109.092C522.37 110.695 524.359 111.833 527.05 112.237L527.914 110.484C524.309 110.049 522.519 108.284 522.519 106.413V105.885H520.238V106.413C520.232 108.215 518.398 110.049 514.855 110.484L515.657 112.237C518.355 111.833 520.337 110.689 521.357 109.092ZM522.494 111.28H520.269V113.256H514.109V115.046H528.703V113.256H522.494V111.28ZM521.375 115.929C517.876 115.929 515.775 116.967 515.775 118.782C515.775 120.609 517.876 121.622 521.375 121.616C524.868 121.622 526.938 120.609 526.951 118.782C526.938 116.967 524.868 115.929 521.375 115.929ZM521.375 119.944C519.144 119.944 518.05 119.571 518.062 118.782C518.05 117.992 519.144 117.632 521.375 117.632C523.569 117.632 524.694 117.992 524.701 118.782C524.694 119.571 523.569 119.944 521.375 119.944ZM538.411 111.342H540.91V115.121H543.147V105.611H540.91V109.515H538.411V111.342ZM534.595 111.541C535.297 112.977 536.509 114.133 538.275 114.711L539.381 112.945C536.901 112.125 535.757 110.248 535.701 108.39H538.89V106.587H530.213V108.39H533.42C533.371 110.397 532.171 112.479 529.56 113.349L530.723 115.127C532.618 114.474 533.899 113.169 534.595 111.541ZM537.678 115.475C534.272 115.475 532.177 116.619 532.183 118.558C532.177 120.497 534.272 121.635 537.678 121.641C541.096 121.635 543.185 120.497 543.191 118.558C543.185 116.619 541.096 115.475 537.678 115.475ZM537.678 119.925C535.558 119.932 534.408 119.472 534.415 118.558C534.408 117.638 535.558 117.178 537.678 117.178C539.804 117.178 540.96 117.638 540.966 118.558C540.96 119.472 539.804 119.932 537.678 119.925ZM556.342 121.622H558.611V105.611H556.342V121.622ZM551.413 108.992H554.763V107.159H545.732V108.992H549.132V109.974C549.126 112.691 547.752 115.655 545.105 116.843L546.379 118.602C548.268 117.738 549.592 115.985 550.313 113.878C551.034 115.817 552.333 117.408 554.223 118.204L555.429 116.445C552.75 115.332 551.413 112.566 551.413 109.974V108.992Z" fill="#212121"/>
<path d="M414.291 141.028V135.381H413.065V149.26H414.291V142.066H416.546V141.028H414.291ZM404.28 136.873V137.901H409.452C409.175 141.199 407.22 143.873 403.628 145.657L404.314 146.619C408.844 144.387 410.689 140.807 410.7 136.873H404.28ZM427.611 135.381V142.829H428.838V135.381H427.611ZM421.335 136.055C419.225 136.044 417.689 137.348 417.689 139.249C417.689 141.138 419.225 142.442 421.335 142.431C423.446 142.442 424.97 141.138 424.97 139.249C424.97 137.348 423.446 136.044 421.335 136.055ZM421.335 137.094C422.749 137.083 423.777 137.978 423.777 139.249C423.777 140.519 422.749 141.414 421.335 141.414C419.91 141.414 418.882 140.519 418.893 139.249C418.882 137.978 419.91 137.083 421.335 137.094ZM419.843 143.536V149.083H428.838V143.536H427.622V145.227H421.048V143.536H419.843ZM421.048 146.21H427.622V148.077H421.048V146.21ZM441.417 135.381V149.293H442.644V135.381H441.417ZM432.003 136.564V145.934H438.578V136.564H437.362V140.232H433.229V136.564H432.003ZM433.229 141.215H437.362V144.906H433.229V141.215ZM451.953 142.884H456.24V141.89H447.875V137.514H456.107V136.508H446.649V142.884H450.737V146.486H445.024V147.514H457.743V146.486H451.953V142.884ZM473.167 140.685H470.051C469.857 138.088 468.493 136.464 466.603 136.453C464.548 136.464 463.111 138.343 463.122 141.293C463.111 144.254 464.548 146.133 466.603 146.133C468.542 146.133 469.929 144.425 470.062 141.702H473.167V149.293H474.382V135.381H473.167V140.685ZM466.603 145.039C465.233 145.039 464.294 143.558 464.294 141.293C464.294 139.039 465.233 137.558 466.603 137.547C467.962 137.558 468.912 139.039 468.912 141.293C468.912 143.558 467.962 145.039 466.603 145.039ZM484.564 140.232H487.138V145.492H488.343V135.392H487.138V139.215H484.564V140.232ZM480.763 141.934C479.84 142.144 479 142.215 478.288 142.238V137.547H480.608V136.53H477.083V143.238H477.68C478.564 143.238 479.591 143.238 480.884 142.95L480.763 141.934ZM485.768 141.912C484.707 142.16 483.785 142.227 482.597 142.243V137.547H485.238V136.53H481.37V143.238H482.067C483.58 143.238 484.608 143.204 485.901 142.928L485.768 141.912ZM480.265 144.652H479.039V148.961H488.707V147.945H480.265V144.652ZM505.126 142.254C505.524 140.254 505.524 138.818 505.524 137.503V136.287H496.131V137.304H504.308V137.503C504.308 138.796 504.308 140.26 503.877 142.254H494.54V143.271H500.231V149.293H501.457V143.271H507.203V142.254H505.126ZM514.694 137.89C515.567 139.486 517.656 140.602 519.76 140.961L520.258 139.978C517.805 139.646 515.307 138.099 515.307 136.243V135.591H514.07V136.243C514.07 138.099 511.584 139.646 509.131 139.978L509.595 140.961C511.727 140.597 513.821 139.497 514.694 137.89ZM515.296 140.221H514.092V142.365H508.368V143.381H521.064V142.365H515.296V140.221ZM518.225 145.724V149.271H519.462V144.74H509.772V145.724H518.225ZM529.125 142.884H533.412V141.89H525.047V137.514H533.279V136.508H523.821V142.884H527.909V146.486H522.196V147.514H534.915V146.486H529.125V142.884ZM550.327 142.74H551.554V135.381H550.327V138.652H547.41C547.14 137.05 545.725 136 543.863 136C541.753 136 540.25 137.293 540.261 139.193C540.25 141.094 541.753 142.387 543.863 142.387C545.747 142.387 547.173 141.309 547.416 139.68H550.327V142.74ZM543.863 141.381C542.438 141.37 541.432 140.464 541.432 139.193C541.432 137.923 542.438 137.028 543.863 137.028C545.267 137.028 546.272 137.923 546.272 139.193C546.272 140.464 545.267 141.37 543.863 141.381ZM550.438 143.436H549.233V144.619C549.222 146.033 548.338 147.558 546.659 148.254L547.3 149.193C548.532 148.663 549.377 147.68 549.825 146.541C550.25 147.702 551.09 148.68 552.372 149.193L553.012 148.254C551.311 147.624 550.427 146.088 550.438 144.619V143.436ZM542.803 145.26V143.525H541.642V149.083H546.471V143.525H545.333V145.26H542.803ZM542.803 148.11V146.21H545.333V148.11H542.803ZM564.167 140.685H561.051C560.857 138.088 559.493 136.464 557.603 136.453C555.548 136.464 554.111 138.343 554.122 141.293C554.111 144.254 555.548 146.133 557.603 146.133C559.542 146.133 560.929 144.425 561.062 141.702H564.167V149.293H565.382V135.381H564.167V140.685ZM557.603 145.039C556.233 145.039 555.294 143.558 555.294 141.293C555.294 139.039 556.233 137.558 557.603 137.547C558.962 137.558 559.912 139.039 559.912 141.293C559.912 143.558 558.962 145.039 557.603 145.039ZM577.254 142.674C578.404 142.055 579.1 141.072 579.1 139.834C579.1 137.68 576.989 136.265 574.017 136.254C571.055 136.265 568.945 137.68 568.945 139.834C568.945 141.088 569.663 142.088 570.846 142.707V146.453H567.696V147.481H580.415V146.453H577.254V142.674ZM570.127 139.834C570.127 138.276 571.741 137.249 574.017 137.26C576.282 137.249 577.917 138.276 577.917 139.834C577.917 141.381 576.282 142.42 574.017 142.42C571.741 142.42 570.127 141.381 570.127 139.834ZM572.05 143.16C572.647 143.309 573.304 143.392 574.017 143.392C574.741 143.392 575.415 143.309 576.017 143.155V146.453H572.05V143.16ZM582.994 148.088C583.547 148.088 584 147.635 584 147.083C584 146.53 583.547 146.077 582.994 146.077C582.442 146.077 581.978 146.53 581.989 147.083C581.978 147.635 582.442 148.088 582.994 148.088ZM441.136 159.381H439.91V167.503H441.136V163.768H443.225V162.729H441.136V159.381ZM436.12 160.166V162.298H432.076V160.166H430.871V166.63H437.335V160.166H436.12ZM432.076 165.635V163.282H436.12V165.635H432.076ZM441.247 169.26V168.276H432.407V173.072H441.512V172.077H433.634V169.26H441.247ZM454.854 164.928V159.381H453.627V173.271H454.854V165.978H457.174V164.928H454.854ZM447.815 160.453C445.76 160.464 444.313 162.343 444.324 165.293C444.313 168.254 445.76 170.133 447.815 170.133C449.871 170.133 451.318 168.254 451.329 165.293C451.318 162.343 449.871 160.464 447.815 160.453ZM447.815 169.039C446.445 169.039 445.484 167.558 445.484 165.293C445.484 163.039 446.445 161.558 447.815 161.547C449.208 161.558 450.147 163.039 450.147 165.293C450.147 167.558 449.208 169.039 447.815 169.039ZM464.859 167.47H469.091V160.365H467.875V162.873H460.66V160.365H459.433V167.47H463.643V170.464H457.931V171.492H470.649V170.464H464.859V167.47ZM467.875 163.878V166.464H460.66V163.878H467.875ZM481.67 162.166C481.659 163.834 481.659 165.779 481.14 168.431L482.378 168.575C482.886 165.779 482.886 163.878 482.897 162.166V160.785H473.107V161.801H481.67V162.166ZM477.936 165.315H476.72V170.276H471.759V171.304H484.422V170.276H477.936V165.315ZM499.89 162.387V164.055H496.177V165.028H499.89V166.486H501.116V159.381H499.89V161.403H496.674C496.763 160.983 496.807 160.541 496.807 160.077H490.542V161.094H495.448C495.227 163.331 493.243 164.989 489.835 165.779L490.277 166.796C493.36 166.061 495.514 164.575 496.382 162.387H499.89ZM493.36 170.497H501.116V167.116H492.111V168.11H499.89V169.558H492.144V173.138H501.592V172.133H493.36V170.497ZM510.911 164.022H513.718V167.657H514.945V159.381H513.718V163.006H510.911V164.022ZM507.668 163.978C508.271 165.409 509.48 166.575 511.044 167.138L511.685 166.155C509.652 165.459 508.259 163.735 508.259 161.923V161.414H511.364V160.398H503.884V161.414H507.022V161.934C507.022 163.923 505.552 165.801 503.486 166.552L504.127 167.525C505.784 166.901 507.072 165.602 507.668 163.978ZM510.337 168.088C507.442 168.088 505.674 169.039 505.685 170.674C505.674 172.309 507.442 173.249 510.337 173.26C513.221 173.249 514.989 172.309 514.989 170.674C514.989 169.039 513.221 168.088 510.337 168.088ZM510.337 172.276C508.204 172.287 506.889 171.68 506.9 170.674C506.889 169.657 508.204 169.05 510.337 169.05C512.458 169.05 513.773 169.657 513.773 170.674C513.773 171.68 512.458 172.287 510.337 172.276ZM528.01 165.105V159.381H526.795V173.271H528.01V166.133H530.331V165.105H528.01ZM520.751 159.547V161.613H517.182V162.63H525.447V161.613H521.977V159.547H520.751ZM521.38 163.779C519.402 163.779 517.966 165.094 517.977 166.972C517.966 168.851 519.402 170.155 521.38 170.155C523.347 170.155 524.773 168.851 524.784 166.972C524.773 165.094 523.347 163.779 521.38 163.779ZM521.38 169.116C520.088 169.127 519.137 168.232 519.148 166.972C519.137 165.713 520.088 164.807 521.38 164.807C522.662 164.807 523.601 165.713 523.612 166.972C523.601 168.232 522.662 169.127 521.38 169.116ZM541.805 173.271H542.988V159.381H541.805V173.271ZM536.601 164.365V165.403H538.954V172.564H540.115V159.68H538.954V164.365H536.601ZM535.209 160.685H534.026V163.381C534.026 165.757 532.855 168.221 530.932 169.348L531.717 170.265C533.104 169.42 534.131 167.829 534.639 165.989C535.131 167.674 536.087 169.16 537.43 169.967L538.137 169.017C536.291 167.923 535.209 165.536 535.209 163.326V160.685ZM554.473 166.674C555.622 166.055 556.318 165.072 556.318 163.834C556.318 161.68 554.208 160.265 551.236 160.254C548.274 160.265 546.164 161.68 546.164 163.834C546.164 165.088 546.882 166.088 548.064 166.707V170.453H544.915V171.481H557.633V170.453H554.473V166.674ZM547.346 163.834C547.346 162.276 548.959 161.249 551.236 161.26C553.501 161.249 555.136 162.276 555.136 163.834C555.136 165.381 553.501 166.42 551.236 166.42C548.959 166.42 547.346 165.381 547.346 163.834ZM549.269 167.16C549.865 167.309 550.523 167.392 551.236 167.392C551.959 167.392 552.633 167.309 553.236 167.155V170.453H549.269V167.16ZM559.461 160.685L559.572 168.807H560.887L560.997 160.685H559.461ZM560.235 172.088C560.787 172.088 561.24 171.635 561.24 171.083C561.24 170.53 560.787 170.077 560.235 170.077C559.682 170.077 559.218 170.53 559.229 171.083C559.218 171.635 559.682 172.088 560.235 172.088Z" fill="#414B5A"/>
<rect x="336.5" y="0.5" width="319" height="225" rx="7.5" stroke="#E5E7EB"/>
<circle cx="832" cy="60" r="20" fill="#57B037"/>
<path d="M822.684 59.1218L829.763 66.1432L841.333 54.6667" stroke="white" stroke-width="4.30362"/>
<path d="M764.661 111.423H769.217V109.626H760.328V105.866H758.097V111.423H762.442V113.014H756.251V114.816H770.87V113.014H764.661V111.423ZM763.517 115.668C760.024 115.674 757.917 116.762 757.917 118.645C757.917 120.535 760.024 121.622 763.517 121.616C766.991 121.622 769.08 120.535 769.092 118.645C769.08 116.762 766.991 115.674 763.517 115.668ZM763.517 119.913C761.304 119.907 760.192 119.472 760.204 118.645C760.192 117.787 761.304 117.39 763.517 117.39C765.692 117.39 766.836 117.787 766.842 118.645C766.836 119.472 765.692 119.907 763.517 119.913ZM784.5 105.624H782.25V117.346H784.5V112.137H786.65V110.254H784.5V105.624ZM776.625 111.802C777.321 113.256 778.527 114.406 780.273 114.99L781.454 113.225C778.856 112.398 777.7 110.41 777.706 108.365V106.599H775.45V108.346C775.444 110.521 774.269 112.666 771.54 113.517L772.79 115.289C774.636 114.661 775.91 113.405 776.625 111.802ZM774.114 116.19V121.343H785.084V119.534H776.401V116.19H774.114ZM789.167 106.09V111.131H800.106V106.09H789.167ZM791.367 109.396V107.824H797.862V109.396H791.367ZM801.958 111.976H787.364V113.735H793.505V114.76H789.049V116.451H797.962V117.278H789.061V121.51H800.591V119.82H791.261V118.856H800.174V114.76H795.755V113.735H801.958V111.976ZM818.686 109.651H817.406V105.891H815.286V115.369H817.406V111.454H818.686V115.419H820.812V105.636H818.686V109.651ZM811.091 112.231C811.663 113.374 812.62 114.294 814.037 114.791L815.05 113.107C813.03 112.448 812.104 110.863 812.11 109.272V109.191H814.565V107.439H812.11V105.779H809.991V107.439H807.504V109.191H809.991V109.272C809.978 110.981 809.077 112.628 807.063 113.399L808.089 115.052C809.556 114.499 810.531 113.486 811.091 112.231ZM818.58 117.899V121.622H820.812V116.097H809.754V117.899H818.58ZM833.764 105.636V114.673H836.014V105.636H833.764ZM827.244 106.363C824.746 106.363 822.862 107.942 822.868 110.217C822.862 112.43 824.746 114.039 827.244 114.046C829.737 114.039 831.614 112.43 831.614 110.217C831.614 107.942 829.737 106.363 827.244 106.363ZM827.244 108.247C828.493 108.24 829.401 108.974 829.401 110.217C829.401 111.416 828.493 112.156 827.244 112.156C825.964 112.156 825.05 111.416 825.063 110.217C825.05 108.974 825.964 108.24 827.244 108.247ZM825.292 115.394V121.442H836.014V115.394H825.292ZM833.814 117.172V119.646H827.505V117.172H833.814ZM850.722 114.972H855.34V106.637H853.103V109.129H846.129V106.637H843.879V114.972H848.503V117.936H842.331V119.758H856.962V117.936H850.722V114.972ZM853.103 110.907V113.182H846.129V110.907H853.103ZM870.58 105.611H868.33V115.108H870.58V111.218H872.73V109.359H870.58V105.611ZM862.612 111.41C863.301 112.809 864.482 113.903 866.185 114.462L867.373 112.715C864.843 111.939 863.712 110.074 863.712 108.135V106.469H861.468V107.917C861.455 110.124 860.312 112.256 857.645 113.151L858.851 114.91C860.679 114.288 861.922 113.02 862.612 111.41ZM865.328 115.438C861.959 115.432 859.846 116.581 859.852 118.515C859.846 120.485 861.959 121.622 865.328 121.616C868.647 121.622 870.729 120.485 870.729 118.515C870.729 116.581 868.647 115.432 865.328 115.438ZM865.328 119.863C863.233 119.857 862.089 119.428 862.096 118.515C862.089 117.651 863.233 117.184 865.328 117.184C867.41 117.184 868.516 117.651 868.516 118.515C868.516 119.428 867.41 119.857 865.328 119.863ZM889.297 121.622H891.416V105.611H889.297V121.622ZM883.939 111.106V112.908H886.046V120.876H888.147V105.878H886.046V111.106H883.939ZM882.652 109.048H885.076V107.252H877.866V109.048H880.489V109.9C880.489 112.622 879.613 115.494 877.257 116.948L878.612 118.602C880.073 117.694 881.036 116.115 881.596 114.244C882.136 115.966 883.069 117.396 884.504 118.235L885.816 116.588C883.479 115.251 882.646 112.566 882.652 109.9V109.048ZM901.54 114.555H906.183V112.784H897.115V108.532H906.071V106.749H894.871V114.555H899.321V117.968H893.149V119.795H907.781V117.968H901.54V114.555Z" fill="#212121"/>
<path d="M740.83 135.392V145.58H742.057V135.392H740.83ZM734.891 139.84C735.504 141.442 736.758 142.691 738.366 143.315L739.007 142.331C736.941 141.58 735.493 139.68 735.504 137.558V136.166H734.255V137.558C734.255 139.757 732.83 141.79 730.731 142.608L731.405 143.569C733.029 142.912 734.289 141.547 734.891 139.84ZM734.311 144.641H733.084V148.961H742.488V147.945H734.311V144.641ZM755.929 145.801V135.392H754.702V138.663H751.608V139.691H754.702V145.801H755.929ZM748.575 140.138C749.178 141.646 750.387 142.851 751.918 143.459L752.603 142.497C750.57 141.768 749.166 139.934 749.166 138V136.232H747.962V137.956C747.951 140.088 746.515 142.033 744.437 142.796L745.089 143.79C746.724 143.138 747.99 141.812 748.575 140.138ZM748.183 144.608H746.945V148.961H756.249V147.945H748.183V144.608ZM765.171 142.884H769.459V141.89H761.094V137.514H769.326V136.508H759.868V142.884H763.956V146.486H758.243V147.514H770.961V146.486H765.171V142.884ZM777.722 136.055V140.895H787.126V136.055H777.722ZM778.927 139.912V137.039H785.91V139.912H778.927ZM776.065 143.503H781.91V146.343H783.126V143.503H788.783V142.486H776.065V143.503ZM777.7 144.972V148.961H787.369V147.945H778.927V144.972H777.7ZM800.611 149.271H801.783V135.381H800.611V149.271ZM795.473 140.387V141.392H797.816V148.541H798.976V135.713H797.816V140.387H795.473ZM793.992 138.033H796.534V137.017H790.125V138.033H792.81V139.337C792.81 141.867 791.683 144.409 789.749 145.569L790.523 146.486C791.915 145.613 792.921 143.983 793.418 142.072C793.91 143.84 794.882 145.337 796.247 146.155L796.987 145.249C795.075 144.144 793.992 141.746 793.992 139.337V138.033ZM804.517 146.939L803.655 151.193H804.815L806.019 146.939H804.517ZM813.095 139.768V140.785H823.272V139.768H821.183V136.84H823.316V135.834H813.051V136.84H815.194V139.768H813.095ZM816.41 139.768V136.84H819.957V139.768H816.41ZM824.531 142.099H811.868V143.105H817.592V144.751H813.415V149.083H822.973V144.751H818.796V143.105H824.531V142.099ZM814.631 148.077V145.724H821.78V148.077H814.631ZM835.939 135.381V142.597H837.144V135.381H835.939ZM830.1 139.271C830.718 140.696 832.022 141.796 833.663 142.309L834.271 141.359C832.183 140.74 830.702 139.149 830.702 137.348V137.193H833.895V136.177H826.216V137.193H829.464V137.348C829.453 139.249 827.973 140.95 825.895 141.635L826.47 142.608C828.171 142.039 829.497 140.829 830.1 139.271ZM829.365 146.575H837.166V143.271H828.127V144.232H835.95V145.657H828.171V149.116H837.663V148.133H829.365V146.575ZM845.175 136.055V140.895H854.579V136.055H845.175ZM846.38 139.912V137.039H853.363V139.912H846.38ZM843.518 143.503H849.363V146.343H850.579V143.503H856.236V142.486H843.518V143.503ZM845.153 144.972V148.961H854.822V147.945H846.38V144.972H845.153ZM868.064 149.271H869.236V135.381H868.064V149.271ZM862.926 140.387V141.392H865.269V148.541H866.429V135.713H865.269V140.387H862.926ZM861.446 138.033H863.987V137.017H857.578V138.033H860.263V139.337C860.263 141.867 859.136 144.409 857.202 145.569L857.976 146.486C859.368 145.613 860.374 143.983 860.871 142.072C861.363 143.84 862.335 145.337 863.7 146.155L864.44 145.249C862.528 144.144 861.446 141.746 861.446 139.337V138.033ZM881.948 141.028V135.381H880.721V149.26H881.948V142.066H884.202V141.028H881.948ZM871.937 136.873V137.901H877.108C876.832 141.199 874.876 143.873 871.285 145.657L871.97 146.619C876.5 144.387 878.346 140.807 878.357 136.873H871.937ZM899.283 135.392V143.326H900.51V135.392H899.283ZM893.007 142.674C895.117 142.674 896.642 141.359 896.642 139.448C896.642 137.514 895.117 136.199 893.007 136.199C890.896 136.199 889.361 137.514 889.361 139.448C889.361 141.359 890.896 142.674 893.007 142.674ZM893.007 137.249C894.421 137.238 895.449 138.155 895.449 139.448C895.449 140.74 894.421 141.646 893.007 141.657C891.582 141.646 890.554 140.74 890.565 139.448C890.554 138.155 891.582 137.238 893.007 137.249ZM898.952 143.934H897.747V144.696C897.747 145.773 897.046 147.171 895.72 147.989C894.405 147.238 893.736 145.928 893.736 144.696V143.934H892.554V144.696C892.543 146.033 891.482 147.514 889.725 148.166L890.344 149.072C891.675 148.575 892.631 147.613 893.134 146.492C893.548 147.657 894.405 148.674 895.758 149.193C897.046 148.646 897.891 147.58 898.322 146.448C898.803 147.613 899.775 148.586 901.162 149.072L901.78 148.166C899.99 147.558 898.941 146.133 898.952 144.696V143.934ZM913.62 140.873V135.381H912.393V149.293H913.62V141.901H915.94V140.873H913.62ZM904.702 137.746H909.962V136.74H903.476V145.812H904.57C907.211 145.812 909.034 145.735 911.211 145.348L911.056 144.287C908.995 144.669 907.216 144.768 904.702 144.773V137.746ZM926.984 141.823V145.525H928.21V135.392H926.984V137.834H923.724V136.597H917.348V143.072H923.724V141.823H926.984ZM918.564 142.088V137.602H922.52V142.088H918.564ZM926.984 140.807H923.724V138.862H926.984V140.807ZM920.464 144.619H919.227V148.961H928.531V147.945H920.464V144.619ZM748.756 163.105H746.933V159.646H745.75V167.823H746.933V164.122H748.756V167.89H749.916V159.392H748.756V163.105ZM745.098 166.287C743.33 165.635 742.237 164.033 742.237 162.387V162.221H744.745V161.227H742.237V159.547H741.076V161.227H738.513V162.221H741.076V162.387C741.065 164.155 740.004 165.834 738.237 166.564L738.844 167.481C740.225 166.89 741.203 165.762 741.684 164.398C742.176 165.657 743.148 166.691 744.502 167.238L745.098 166.287ZM748.712 169.646V173.271H749.916V168.641H740.557V169.646H748.712ZM762.197 159.392V167.326H763.424V159.392H762.197ZM755.921 160.122C753.811 160.122 752.275 161.436 752.275 163.381C752.275 165.282 753.811 166.608 755.921 166.608C758.032 166.608 759.556 165.282 759.556 163.381C759.556 161.436 758.032 160.122 755.921 160.122ZM755.921 161.171C757.335 161.16 758.363 162.077 758.363 163.381C758.363 164.663 757.335 165.569 755.921 165.569C754.496 165.569 753.468 164.663 753.479 163.381C753.468 162.077 754.496 161.16 755.921 161.171ZM754.385 168.077V173.083H763.424V168.077H754.385ZM762.219 169.072V172.077H755.601V169.072H762.219ZM776.003 173.271H777.23V159.381H776.003V173.271ZM770.755 161.834H774.059V160.807H766.235V161.834H769.517V163.646C769.506 166.044 767.771 168.674 765.782 169.624L766.512 170.597C768.097 169.801 769.501 168.033 770.152 166C770.804 167.917 772.202 169.514 773.826 170.254L774.512 169.282C772.467 168.398 770.755 166 770.755 163.646V161.834ZM789.522 162.166C789.511 163.834 789.511 165.779 788.992 168.431L790.229 168.575C790.737 165.779 790.737 163.878 790.749 162.166V160.785H780.958V161.801H789.522V162.166ZM785.787 165.315H784.572V170.276H779.61V171.304H792.273V170.276H785.787V165.315ZM800.537 160.685L797.719 162.564V163.978L800.471 162.155H800.537V172H801.951V160.685H800.537ZM808.669 172.155C811.177 172.155 812.624 170.044 812.624 166.343C812.624 162.674 811.155 160.53 808.669 160.53C806.182 160.53 804.713 162.674 804.713 166.343C804.713 170.044 806.16 172.155 808.669 172.155ZM808.669 170.906C807.033 170.906 806.083 169.271 806.083 166.343C806.083 163.414 807.044 161.757 808.669 161.757C810.293 161.757 811.254 163.414 811.254 166.343C811.254 169.271 810.304 170.906 808.669 170.906ZM818.2 172.155C820.708 172.155 822.156 170.044 822.156 166.343C822.156 162.674 820.686 160.53 818.2 160.53C815.714 160.53 814.244 162.674 814.244 166.343C814.244 170.044 815.692 172.155 818.2 172.155ZM818.2 170.906C816.565 170.906 815.614 169.271 815.614 166.343C815.614 163.414 816.576 161.757 818.2 161.757C819.824 161.757 820.786 163.414 820.786 166.343C820.786 169.271 819.835 170.906 818.2 170.906ZM824.151 163.403C824.151 164.641 824.925 165.691 826.372 165.691C827.797 165.691 828.571 164.641 828.571 163.403V162.807C828.571 161.569 827.82 160.519 826.372 160.519C824.958 160.519 824.151 161.569 824.151 162.807V163.403ZM825.853 172L833.632 160.685H832.372L824.593 172H825.853ZM825.3 162.807C825.3 162.133 825.61 161.492 826.372 161.492C827.168 161.492 827.422 162.133 827.422 162.807V163.403C827.422 164.077 827.146 164.718 826.372 164.718C825.588 164.718 825.3 164.077 825.3 163.403V162.807ZM829.797 169.878C829.797 171.116 830.571 172.166 832.018 172.166C833.433 172.166 834.217 171.116 834.217 169.878V169.282C834.217 168.044 833.455 166.994 832.018 166.994C830.593 166.994 829.797 168.044 829.797 169.282V169.878ZM830.947 169.282C830.947 168.608 831.245 167.967 832.018 167.967C832.803 167.967 833.068 168.608 833.068 169.282V169.878C833.068 170.552 832.781 171.193 832.018 171.193C831.223 171.193 830.947 170.552 830.947 169.878V169.282ZM846.914 167.47H851.146V160.365H849.93V162.873H842.715V160.365H841.488V167.47H845.698V170.464H839.985V171.492H852.704V170.464H846.914V167.47ZM849.93 163.878V166.464H842.715V163.878H849.93ZM864.675 159.381H863.449V167.834H864.675V164.033H866.764V163.006H864.675V159.381ZM857.885 163.746C858.488 165.193 859.703 166.343 861.239 166.906L861.902 165.934C859.891 165.249 858.454 163.514 858.454 161.624V160.099H857.25V161.536C857.239 163.68 855.847 165.536 853.758 166.309L854.421 167.293C856.046 166.669 857.289 165.387 857.885 163.746ZM860.222 168.188C857.36 168.188 855.615 169.116 855.615 170.707C855.615 172.32 857.36 173.238 860.222 173.238C863.073 173.238 864.797 172.32 864.797 170.707C864.797 169.116 863.073 168.188 860.222 168.188ZM860.222 172.265C858.123 172.254 856.83 171.691 856.841 170.707C856.83 169.757 858.123 169.171 860.222 169.171C862.322 169.171 863.604 169.757 863.604 170.707C863.604 171.691 862.322 172.254 860.222 172.265ZM878.305 165.238H876.459V159.713H875.299V172.586H876.459V166.254H878.305V173.271H879.476V159.381H878.305V165.238ZM870.492 159.801V161.779H867.609V162.785H874.581V161.779H871.719V159.801H870.492ZM871.1 163.724C869.365 163.724 868.106 165.028 868.117 166.873C868.106 168.74 869.365 170.055 871.1 170.055C872.846 170.055 874.095 168.74 874.106 166.873C874.095 165.028 872.846 163.724 871.1 163.724ZM871.1 168.983C869.995 168.994 869.2 168.11 869.2 166.873C869.2 165.657 869.995 164.762 871.1 164.751C872.205 164.762 873.012 165.657 873.012 166.873C873.012 168.11 872.205 168.994 871.1 168.983ZM884.31 166.055V161.691H892.553V160.674H883.094V167.072H892.685V166.055H884.31ZM881.47 171.37H894.188V170.343H881.47V171.37ZM905.585 162.552H902.79V163.58H905.585V166.343H902.69V167.381H905.585V173.293H906.801V159.381H905.585V162.552ZM897.044 165.58H901.895V160.641H895.784V161.657H900.69V164.586H895.828V170.044H896.856C899.077 170.044 900.856 169.967 903.077 169.624L902.966 168.597C900.861 168.917 899.138 169 897.044 169.006V165.58ZM918.684 166.674C919.833 166.055 920.529 165.072 920.529 163.834C920.529 161.68 918.419 160.265 915.446 160.254C912.485 160.265 910.375 161.68 910.375 163.834C910.375 165.088 911.093 166.088 912.275 166.707V170.453H909.126V171.481H921.844V170.453H918.684V166.674ZM911.557 163.834C911.557 162.276 913.17 161.249 915.446 161.26C917.712 161.249 919.347 162.276 919.347 163.834C919.347 165.381 917.712 166.42 915.446 166.42C913.17 166.42 911.557 165.381 911.557 163.834ZM913.48 167.16C914.076 167.309 914.734 167.392 915.446 167.392C916.17 167.392 916.844 167.309 917.446 167.155V170.453H913.48V167.16ZM924.424 172.088C924.976 172.088 925.429 171.635 925.429 171.083C925.429 170.53 924.976 170.077 924.424 170.077C923.871 170.077 923.407 170.53 923.418 171.083C923.407 171.635 923.871 172.088 924.424 172.088Z" fill="#414B5A"/>
<rect x="672.5" y="0.5" width="319" height="225" rx="7.5" stroke="#E5E7EB"/>
</svg>
