<svg xmlns="http://www.w3.org/2000/svg" width="108" height="75" fill="none" viewBox="0 0 108 75"><rect width="108" height="75" fill="#F5F5F7" rx="10"/><path fill="#212121" d="M47.047 32.656c2.445 0 4.234-1.383 4.219-3.297.015-1.422-.891-2.445-2.485-2.656v-.094c1.235-.257 2.078-1.172 2.063-2.437.015-1.735-1.469-3.14-3.766-3.14-2.21 0-3.937 1.304-3.984 3.202h1.953c.039-.953.953-1.547 2.016-1.547 1.101 0 1.82.641 1.812 1.594.008.985-.828 1.657-2.031 1.657h-1.016V27.5h1.016c1.468.008 2.343.734 2.343 1.75 0 1.008-.898 1.695-2.14 1.688-1.18.007-2.086-.594-2.14-1.5h-2.048c.047 1.906 1.774 3.218 4.188 3.218Zm18.406-5.015H52.578v1.406h5.547v4.828h1.719v-4.828h5.61V27.64ZM53.25 25.328l.656 1.36c2.383-.344 4.242-1.446 5.11-2.97.859 1.524 2.734 2.626 5.14 2.97l.625-1.36c-2.797-.351-4.64-1.844-4.758-3.39h4.243v-1.375h-10.5v1.375h4.242c-.125 1.546-1.985 3.039-4.758 3.39Z"/><path fill="#414B5A" d="M24.093 54.5h1.176l.43-2.652h1.415l.205-1.163h-1.428l.369-2.269h1.442l.192-1.176H26.45l.43-2.638H25.72l-.43 2.638h-2.311l.43-2.638h-1.176l-.43 2.638h-1.429l-.178 1.176h1.409l-.37 2.27H19.8l-.178 1.162h1.422l-.438 2.652h1.176l.438-2.652h2.31l-.437 2.652Zm-1.682-3.815.37-2.269h2.31l-.37 2.27h-2.31Zm17.254 2.366h-2.68v-3.227c.985-.553 1.573-1.422 1.573-2.502 0-1.928-1.894-3.192-4.526-3.199-2.625.007-4.518 1.272-4.511 3.2-.007 1.1.608 1.975 1.613 2.529v3.199h-2.68v1.08h11.211v-1.08Zm-8.887-5.729c0-1.32 1.333-2.16 3.254-2.16 1.908 0 3.261.84 3.268 2.16-.007 1.313-1.36 2.167-3.268 2.174-1.92-.007-3.254-.861-3.254-2.174Zm1.64 5.729v-2.72a7.07 7.07 0 0 0 1.614.177c.588 0 1.142-.062 1.64-.178v2.72H32.42Zm18.308-9.639h-1.3V55.69h1.3V43.412Zm-9.489 2.16h4.416v2.38h-4.402v4.798h1.039c2.167-.007 4.013-.089 6.18-.451l-.123-1.067c-2.051.335-3.78.431-5.77.438v-2.68h4.403v-4.47h-5.743v1.052Zm21.055-2.146h-1.299v7.78h1.299v-3.378h1.75v-1.08h-1.75v-3.322ZM52.64 49.44l.136 1.026c2.12.007 4.997-.034 7.575-.479l-.11-.93a38.525 38.525 0 0 1-3.185.294v-.997c1.422-.206 2.365-1.053 2.379-2.25-.014-1.353-1.265-2.262-3.063-2.27-1.818.008-3.056.917-3.049 2.27-.007 1.217.957 2.079 2.434 2.263V49.4a102.32 102.32 0 0 1-3.117.041Zm1.558 4.047c0 1.347 1.552 2.154 4.088 2.147 2.53.007 4.074-.8 4.088-2.147-.014-1.374-1.559-2.16-4.088-2.16-2.536 0-4.088.786-4.088 2.16Zm.342-7.383c-.014-.786.725-1.278 1.832-1.285 1.087.007 1.832.5 1.832 1.285 0 .82-.745 1.34-1.832 1.34-1.107 0-1.846-.52-1.832-1.34Zm.93 7.383c-.007-.745 1.039-1.162 2.816-1.162 1.743 0 2.79.417 2.803 1.162-.014.725-1.06 1.142-2.803 1.149-1.777-.007-2.823-.424-2.816-1.149Zm20.494-.396h-4.977v-2.666h-1.285v2.666h-4.95v1.066h11.212v-1.066ZM65.3 49.838l.492 1.012c2.05-.322 3.753-1.292 4.546-2.721.8 1.429 2.509 2.4 4.56 2.72l.492-1.011c-2.516-.37-4.328-1.791-4.389-3.514h3.924v-1.052h-3.938V43.63h-1.285v1.64h-3.937v1.053h3.924c-.062 1.723-1.874 3.145-4.39 3.514Zm22.764 3.227h-4.99v-2.516h3.663v-6.303h-1.285v2.106h-6.016v-2.106h-1.298v6.303h3.65v2.516h-4.935v1.08h11.21v-1.08Zm-8.627-3.569v-2.092h6.015v2.092h-6.016Z"/></svg>