<svg xmlns="http://www.w3.org/2000/svg" width="107" height="75" fill="none" viewBox="0 0 107 75"><rect width="107" height="75" fill="#F5F5F7" rx="10"/><path fill="#212121" d="M42.438 32.5h7.859v-1.703h-5.031v-.078l2.015-2c2.227-2.102 2.836-3.133 2.844-4.407-.008-1.898-1.563-3.28-3.875-3.28-2.258 0-3.867 1.39-3.86 3.53h1.938c-.008-1.148.742-1.875 1.906-1.875 1.102 0 1.938.665 1.938 1.72 0 .952-.594 1.624-1.734 2.765l-4 3.86V32.5Zm22.046-4.86H51.61v1.407h5.547v4.828h1.719v-4.828h5.61V27.64Zm-12.203-2.312.657 1.36c2.382-.344 4.242-1.446 5.109-2.97.86 1.524 2.734 2.626 5.14 2.97l.626-1.36c-2.797-.351-4.641-1.844-4.758-3.39h4.242v-1.375h-10.5v1.375h4.242c-.125 1.546-1.984 3.039-4.758 3.39Z"/><path fill="#414B5A" d="M23.593 54.5h1.176l.43-2.652h1.415l.205-1.163h-1.428l.369-2.269h1.442l.192-1.176H25.95l.43-2.638H25.22l-.43 2.638h-2.311l.43-2.638h-1.176l-.43 2.638h-1.429l-.178 1.176h1.409l-.37 2.27H19.3l-.178 1.162h1.422l-.438 2.652h1.176l.438-2.652h2.31l-.437 2.652Zm-1.682-3.815.37-2.269h2.31l-.37 2.27h-2.31Zm12.1-5.25h-2.393v-1.667h-1.285v1.667h-2.406v1.053h6.084v-1.053Zm-5.688 4.608c-.007 1.675 1.114 2.85 2.653 2.844 1.551.007 2.659-1.17 2.666-2.844-.007-1.648-1.115-2.816-2.666-2.816-1.538 0-2.66 1.169-2.653 2.816Zm1.149 0c-.007-1.019.622-1.73 1.504-1.736.881.006 1.517.717 1.517 1.736 0 1.039-.636 1.736-1.517 1.736-.882 0-1.511-.697-1.504-1.736Zm5.1 5.045h1.23v-5.51h1.408v6.084h1.23v-12.25h-1.23v5.1h-1.408v-4.827h-1.23v11.403Zm15.695-3.8h-8.3v1.038h7v3.35h1.3v-4.389Zm-9.653-1.423h5.688V47.5h2.666v3.13h1.299v-7.218h-1.3v3.035h-2.665v-2.133h-5.688v5.551Zm1.285-1.039v-3.459h3.131v3.46H41.9Zm20.166-1.832h-7.15V43.85H53.63v4.183h8.435v-1.039Zm-9.925 3.623h11.21v-1.039H52.14v1.04Zm1.394 4.758h8.614v-1.066h-7.315v-2.53h-1.299v3.596Zm21.301-11.963h-1.244v4.867h-1.463v-4.635h-1.23V55.06h1.23v-5.687h1.463v6.29h1.244v-12.25Zm-10.746 8.791.806.984c1.252-.738 2.058-2.023 2.475-3.63.438 1.409 1.244 2.55 2.447 3.207l.766-.998c-1.784-.916-2.611-2.913-2.611-5.114v-.793h2.133v-1.052h-5.688v1.052h2.297v.793c0 2.434-.834 4.546-2.625 5.551Zm18.69-7.615h-5.743v8.053h5.742v-8.053Zm-4.458 7v-5.975h3.2v5.975h-3.2Zm6.877 4.102h1.3V43.412h-1.3V55.69Z"/></svg>