<svg xmlns="http://www.w3.org/2000/svg" width="166" height="158" fill="none" viewBox="0 0 166 158"><path fill="#F5F5F7" d="M0 10C0 4.477 4.477 0 10 0h146c5.523 0 10 4.477 10 10v148H0V10Z"/><path fill="#fff" d="M148 83H19V38.951L83.5 19 148 38.951V83Z"/><path fill="#B7BDC7" d="M119.415 56.456a7.727 7.727 0 0 0 7.727-7.728A7.727 7.727 0 0 0 119.415 41a7.727 7.727 0 0 0-7.728 7.728 7.727 7.727 0 0 0 7.728 7.728Zm.266 1.903c-8.659 0-15.681 3.634-15.681 8.107 0 4.473 0 8.106 15.681 8.106s15.681-3.633 15.681-8.106-7.022-8.107-15.681-8.107ZM83.415 56.456a7.727 7.727 0 0 0 7.727-7.728A7.727 7.727 0 0 0 83.415 41a7.727 7.727 0 0 0-7.728 7.728 7.727 7.727 0 0 0 7.728 7.728Zm.266 1.903C75.02 58.36 68 61.993 68 66.466c0 4.473 0 8.106 15.68 8.106 15.681 0 15.681-3.633 15.681-8.106s-7.021-8.107-15.68-8.107ZM47.415 56.456a7.727 7.727 0 0 0 7.727-7.728A7.727 7.727 0 0 0 47.415 41a7.727 7.727 0 0 0-7.728 7.728 7.727 7.727 0 0 0 7.728 7.728Zm.266 1.903C39.02 58.36 32 61.993 32 66.466c0 4.473 0 8.106 15.68 8.106 15.681 0 15.681-3.633 15.681-8.106s-7.021-8.107-15.68-8.107Z" style="mix-blend-mode:multiply"/><path fill="#414B5A" d="M56.65 134.137c2.05 0 3.575-1.21 3.568-2.858.007-1.251-.78-2.16-2.133-2.351v-.069c1.066-.266 1.764-1.073 1.75-2.201.014-1.463-1.21-2.693-3.158-2.693-1.846 0-3.336 1.094-3.377 2.707h1.449c.034-.896.923-1.449 1.914-1.449 1.046 0 1.723.615 1.723 1.517 0 .95-.786 1.579-1.914 1.572h-.848v1.231h.848c1.415.007 2.228.704 2.228 1.682 0 .963-.868 1.613-2.064 1.613-1.108 0-1.969-.554-2.024-1.422h-1.53c.06 1.62 1.517 2.721 3.567 2.721Zm9.61-4.949h-4.388v1.257h4.389v-1.257Zm1.532 2.884h4.813V134h1.421v-1.928h1.354v-1.271h-1.354v-6.699h-1.859l-4.375 6.753v1.217Zm1.586-1.271v-.082l3.117-4.826h.11v4.908h-3.227Zm17.254-7.875h-1.299v8.9h1.299v-8.9Zm-9.912 3.855c.007 1.798 1.415 3.049 3.267 3.049 1.846 0 3.254-1.251 3.254-3.049 0-1.77-1.408-3.028-3.254-3.035-1.852.007-3.26 1.265-3.267 3.035Zm1.271 0c-.007-1.128.855-1.9 1.996-1.9 1.121 0 1.983.772 1.983 1.9 0 1.156-.862 1.914-1.983 1.914-1.141 0-2.003-.758-1.996-1.914Zm.63 8.121H87v-1.052h-7.068v-2.926H78.62v3.978Zm22.913-11.99h-1.299v12.236h1.299v-6.275h1.901v-1.08h-1.901v-4.881Zm-9.53 8.969.725 1.012c4.034-1.99 5.592-5.155 5.606-8.696H92.62v1.08h4.389c-.267 2.858-1.935 5.073-5.004 6.604Zm21.835-8.203h-8.381v1.066h7.096v.014c-.007 1.141-.007 2.42-.369 4.17h-8.094v1.066h4.894v5.182h1.313v-5.182h4.963v-1.066h-1.764c.342-1.743.342-3.008.342-4.17v-1.08Z"/><path fill="#212121" d="M66.297 99.266h-1.734v3.359h-2.438v1.422h2.438v3.422h1.734v-8.203Zm-11.86 6.796.891 1.36c1.672-.555 2.844-1.734 3.469-3.219.617 1.336 1.734 2.414 3.312 2.953l.875-1.375c-2.187-.742-3.328-2.492-3.328-4.187v-.125h2.922v-1.407h-7.625v1.407h2.938v.109c0 1.867-1.203 3.742-3.453 4.484Zm2.47 7.157h9.39v-5.141h-9.39v5.141Zm1.734-1.407v-2.359h5.953v2.359H58.64Zm22.562-1.546h-5.625v-2.75h4.156v-7.313H78v2.313h-6.547v-2.313H69.72v7.313h4.14v2.75h-5.562v1.422h12.906v-1.422Zm-9.75-4.157v-2.203H78v2.203h-6.547Zm25.61-6.843h-1.735v8.5h1.734v-3.547h1.97v-1.422h-1.97v-3.531Zm-10.657 7.672h6.735v-6.782h-1.72v2h-3.296v-2h-1.719v6.782Zm1.25 2.874h7.672v3.579h1.734v-4.969h-9.406v1.39Zm.469-4.25v-2.046h3.297v2.046h-3.297Zm18.922-4.359v-1.047h-1.844v1.047c-.008 2.172-2.148 4.359-5.062 4.891l.765 1.453c2.36-.5 4.297-1.945 5.227-3.828.922 1.898 2.859 3.336 5.226 3.828l.782-1.453c-2.961-.516-5.094-2.711-5.094-4.891Zm-7.297 10.391h12.906v-1.438H99.75v1.438Z"/></svg>