<svg width="343" height="130" viewBox="0 0 343 130" fill="none" xmlns="http://www.w3.org/2000/svg">
<mask id="mask0_1431_2217" style="mask-type:alpha" maskUnits="userSpaceOnUse" x="109" y="30" width="121" height="85">
<rect x="109.673" y="30.4033" width="120.252" height="83.9496" rx="2.26891" fill="white"/>
<rect x="109.673" y="30.4033" width="120.252" height="83.9496" rx="2.26891" fill="white"/>
</mask>
<g mask="url(#mask0_1431_2217)">
<path d="M169.354 68.5449C171.917 59.0578 175.996 45.6033 182.339 43.2239C182.453 43.1874 182.574 43.1811 182.69 43.2055C182.807 43.2299 182.915 43.2843 183.005 43.3632L188.23 48.2929C188.311 48.3578 188.376 48.4409 188.42 48.5355C188.463 48.63 188.484 48.7334 188.48 48.8374C188.476 48.9414 188.448 49.043 188.398 49.1342C188.348 49.2253 188.277 49.3035 188.191 49.3625C184.69 51.7476 178.684 56.178 177.17 60.4768C176.204 63.4556 175.555 66.5282 175.235 69.6434C175.22 69.7596 175.175 69.8701 175.105 69.9635C175.034 70.057 174.94 70.1301 174.832 70.1757C174.724 70.2212 174.606 70.2375 174.49 70.2229C174.374 70.2083 174.264 70.1633 174.17 70.0925L169.522 69.4602C169.38 69.3596 169.283 69.2076 169.252 69.0366C169.221 68.8656 169.257 68.6892 169.354 68.5449Z" fill="#368F2C"/>
<path d="M184.494 134.965C183.288 137.459 181.196 139.589 178.478 141.089C175.76 142.59 172.536 143.395 169.209 143.405C165.882 143.414 162.598 142.627 159.767 141.142C156.936 139.657 154.684 137.54 153.29 135.054C151.991 132.721 151.502 130.173 151.026 127.655C149.03 117.166 147.032 106.592 146.464 95.9876C146.051 88.2031 146.465 80.1796 150.376 73.1625C154.287 66.1454 162.36 60.2935 171.914 59.8943C174.379 59.7632 176.864 60.0717 179.196 60.7983C182.197 61.8386 184.82 63.5094 186.788 65.6349C193.127 72.188 193.948 81.0899 193.715 89.3262C193.243 104.866 191.348 120.673 184.494 134.965Z" fill="#FF6741"/>
<path d="M164.814 65.3308C161.989 60.8662 158.728 56.7321 154.761 53.9165C150.794 51.1009 146.059 49.6627 141.533 50.7837C134.331 52.5625 128.828 60.5778 126.637 69.3221C124.446 78.0664 125.032 87.446 126.175 96.4519C126.984 102.776 128.06 109.037 129.398 115.21C130.044 118.547 130.978 121.781 132.184 124.858C134.446 130.287 138.125 134.626 142.248 137.935C146.181 141.089 151.119 143.41 155.555 141.329C160.965 138.807 163.349 130.884 164.186 123.775C166.465 104.467 162.289 84.786 164.814 65.3308Z" fill="#FF6741"/>
<path d="M176.838 73.9C179.428 68.1076 181.843 64.0216 186.879 61.341C190.614 59.3505 193.597 57.7325 199.477 58.4602C205.357 59.1879 209.281 61.6981 212.72 65.9645C216.159 70.2309 217.678 76.0166 217.952 81.7958C218.225 87.5749 217.298 93.3408 216.21 98.9806C214.501 107.878 212.346 116.776 208.477 124.658C204.608 132.541 198.846 139.402 191.627 142.52C188.908 143.688 185.888 144.311 183.13 143.263C179.624 141.936 177.122 138.088 175.939 133.974C174.755 129.86 174.682 125.382 174.621 121.009C174.403 105.324 170.573 87.9067 176.838 73.9Z" fill="#FF6741"/>
<path d="M195.513 92.517C193.768 102.709 188.423 105.628 181.716 105.159C175.01 104.691 168.881 98.7421 172.602 85.0341L195.513 92.517Z" fill="black"/>
<path d="M128 63.6992C141.435 72.839 174.8 91.1168 216.725 94.3337" stroke="black" stroke-width="4.07022" stroke-linecap="round"/>
<path d="M147.997 94.6691C147.035 86.7807 151.936 81.522 158.71 80.1526C165.485 78.7832 171.519 81.8184 172.701 89.7108C173.883 97.6033 168.954 103.12 162.002 104.519C155.049 105.918 148.954 102.673 147.997 94.6691Z" fill="white"/>
<path d="M164.791 91.0052C164.342 87.9936 162.41 86.4222 159.652 86.9288C156.895 87.4353 155.529 89.6382 155.952 92.6567C156.376 95.6752 158.317 97.2663 161.091 96.7332C163.865 96.2001 165.247 93.9706 164.791 91.0052Z" fill="#221815"/>
<path d="M157.015 69.6284C156.454 71.056 156.886 72.5612 163.088 74.9959C169.289 77.4305 170.63 76.621 171.19 75.1934C171.751 73.7657 172.205 72.6084 165.117 69.8259C158.916 67.3912 157.575 68.2007 157.015 69.6284Z" fill="#221815"/>
<path d="M175.205 77.9386C175.319 79.4681 176.36 80.6377 183.004 80.1452C189.648 79.6527 190.506 78.3424 190.392 76.8129C190.279 75.2834 190.187 74.0435 182.593 74.6063C175.949 75.0988 175.092 76.4091 175.205 77.9386Z" fill="#221815"/>
</g>
<path d="M108.538 29.269H114.21V114.353H108.538V29.269Z" fill="#CCC8C8"/>
<path d="M227.655 29.269H233.327V114.353H227.655V29.269Z" fill="#CCC8C8"/>
<path d="M199.294 29.269H204.966V114.353H199.294V29.269Z" fill="#CCC8C8"/>
<path d="M136.899 29.269H142.571V114.353H136.899V29.269Z" fill="#CCC8C8"/>
<rect x="104" y="113.218" width="135" height="6.80672" rx="1.13445" fill="#CCC8C8"/>
<rect x="104" y="27" width="135" height="6.80672" rx="1.13445" fill="#CCC8C8"/>
</svg>
