<svg xmlns="http://www.w3.org/2000/svg" width="36" height="19" fill="none" viewBox="0 0 36 19"><rect width="36" height="18" y=".29" fill="#414B5A" rx="2"/><path fill="#fff" d="M9.843 4.804V9.78h-.07L6.37 4.804H4.642v8.486H6.64V8.305h.059l3.439 4.985h1.699V4.804H9.843Zm9.152 8.486v-1.632h-3.883V9.859h3.576V8.231h-3.576V6.437h3.883V4.804h-5.88v8.486h5.88Zm5.209 0 1.55-5.225h.066l1.541 5.225h1.931l2.462-8.486h-2.205l-1.31 5.64h-.065l-1.484-5.64h-1.815L23.4 10.431h-.07l-1.31-5.627h-2.204l2.457 8.486h1.931Z"/></svg>