<svg xmlns="http://www.w3.org/2000/svg" width="167" height="158" fill="none" viewBox="0 0 167 158"><path fill="#F5F5F7" d="M0 10C0 4.477 4.477 0 10 0h147c5.523 0 10 4.477 10 10v148H0V10Z"/><path fill="#fff" d="M117 81a2 2 0 0 1-2 2H52a2 2 0 0 1-2-2V40.088a2 2 0 0 1 .977-1.719l31.5-18.76a2 2 0 0 1 2.046 0l31.5 18.76a2 2 0 0 1 .977 1.719V81Z"/><path fill="#B7BDC7" d="M83.415 56.456a7.727 7.727 0 0 0 7.727-7.728A7.727 7.727 0 0 0 83.415 41a7.727 7.727 0 0 0-7.728 7.728 7.727 7.727 0 0 0 7.728 7.728Zm.266 1.903C75.02 58.36 68 61.993 68 66.466c0 4.473 0 8.106 15.68 8.106 15.681 0 15.681-3.633 15.681-8.106s-7.021-8.107-15.68-8.107Z" style="mix-blend-mode:multiply"/><circle cx="113.973" cy="39.973" r="14.973" fill="#57B037"/><path fill="#57B037" d="m107.984 39.08 4.926 4.886 8.051-7.986"/><path stroke="#fff" stroke-width="2.995" d="m107.984 39.08 4.926 4.886 8.051-7.986"/><path fill="#414B5A" d="M58.105 124.102h-1.477l-2.461 1.613v1.435l2.365-1.545h.055V134h1.517v-9.898Zm6.904 5.086H60.62v1.257h4.389v-1.257ZM66.362 134h6.659v-1.285h-4.567v-.082l2.01-2.037c1.86-1.825 2.379-2.707 2.392-3.815-.013-1.606-1.333-2.816-3.24-2.816-1.886 0-3.267 1.196-3.254 3.008h1.422c.007-1.053.704-1.75 1.805-1.75 1.039 0 1.832.622 1.832 1.599 0 .868-.54 1.497-1.627 2.625l-3.432 3.459V134Zm18.06-11.074h-1.298v8.9h1.299v-8.9Zm-9.911 3.855c.007 1.798 1.415 3.049 3.267 3.049 1.846 0 3.254-1.251 3.254-3.049 0-1.77-1.408-3.028-3.254-3.035-1.852.007-3.26 1.265-3.267 3.035Zm1.271 0c-.007-1.128.855-1.9 1.996-1.9 1.121 0 1.983.772 1.983 1.9 0 1.156-.862 1.914-1.983 1.914-1.141 0-2.003-.758-1.996-1.914Zm.63 8.121h8.38v-1.052h-7.068v-2.926H76.41v3.978Zm22.913-11.99h-1.299v12.236h1.3v-6.275h1.9v-1.08h-1.9v-4.881Zm-9.53 8.969.725 1.012c4.034-1.99 5.592-5.155 5.606-8.696h-5.715v1.08H94.8c-.267 2.858-1.935 5.073-5.004 6.604Zm21.835-8.203h-8.381v1.066h7.096v.014c-.007 1.141-.007 2.42-.369 4.17h-8.094v1.066h4.894v5.182h1.313v-5.182h4.963v-1.066h-1.764c.342-1.743.342-3.008.342-4.17v-1.08Z"/><path fill="#212121" d="M47.766 101.203v-1.047h-1.844v1.047c-.008 2.172-2.149 4.359-5.063 4.891l.766 1.453c2.36-.5 4.297-1.945 5.227-3.828.921 1.898 2.859 3.336 5.226 3.828l.781-1.453c-2.96-.516-5.093-2.711-5.093-4.891Zm-7.297 10.391h12.906v-1.438H40.469v1.438Zm19.906-11.156h-5.547v7.187h.938c2.195-.008 3.554-.047 5.218-.344l-.187-1.39c-1.375.25-2.578.312-4.297.328v-1.563h3.734v-1.359H56.5v-1.485h3.875v-1.374Zm-3.453 12.671h9.844v-1.406h-8.11v-3.109h-1.734v4.515Zm4.703-3.625h1.625v-4.812h1.469v5.156h1.656V99.281h-1.656v3.985H63.25v-3.72h-1.625v9.938Zm17.563-10.218h-1.735v14.14h1.734v-7.359h2.172v-1.422h-2.171v-5.36Zm-10.485 10.687h1.172c2.547 0 4.445-.062 6.64-.437l-.203-1.469c-1.937.336-3.68.445-5.874.453v-6.484h4.874v-1.407h-6.609v9.344Zm24.719-4.062h-8.188v-3.985h8.079V100.5h-9.797v6.781h9.906v-1.39Zm-11.469 5.703H94.86v-1.438H81.953v1.438Zm28.766-12.328h-1.735v8.5h1.735v-3.547h1.969v-1.422h-1.969v-3.531Zm-10.657 7.672h6.735v-6.782h-1.719v2h-3.297v-2h-1.719v6.782Zm1.25 2.874h7.672v3.579h1.735v-4.969h-9.407v1.39Zm.469-4.25v-2.046h3.297v2.046h-3.297Zm18.922-4.359v-1.047h-1.844v1.047c-.007 2.172-2.148 4.359-5.062 4.891l.765 1.453c2.36-.5 4.297-1.945 5.227-3.828.922 1.898 2.859 3.336 5.227 3.828l.781-1.453c-2.961-.516-5.094-2.711-5.094-4.891Zm-7.297 10.391h12.906v-1.438h-12.906v1.438Z"/></svg>