<svg xmlns="http://www.w3.org/2000/svg" width="108" height="75" fill="none" viewBox="0 0 108 75"><rect width="108" height="75" fill="#F5F5F7" rx="10"/><path fill="#212121" d="M48.531 21.188h-1.953L43.781 23v1.86l2.64-1.688h.063V32.5h2.047V21.187Zm15.157 6.453H50.812v1.406h5.547v4.828h1.72v-4.828h5.608V27.64Zm-12.204-2.313.657 1.36c2.382-.344 4.242-1.446 5.109-2.97.86 1.524 2.734 2.626 5.14 2.97l.626-1.36c-2.797-.351-4.641-1.844-4.758-3.39H62.5v-1.375H52v1.375h4.242c-.125 1.546-1.984 3.039-4.758 3.39Z"/><path fill="#414B5A" d="M24.093 54.5h1.176l.43-2.652h1.415l.205-1.163h-1.428l.369-2.269h1.442l.192-1.176H26.45l.43-2.638H25.72l-.43 2.638h-2.311l.43-2.638h-1.176l-.43 2.638h-1.429l-.178 1.176h1.409l-.37 2.27H19.8l-.178 1.162h1.422l-.438 2.652h1.176l.438-2.652h2.31l-.437 2.652Zm-1.682-3.815.37-2.269h2.31l-.37 2.27h-2.31Zm17.254 2.352h-11.21v1.094h11.21v-1.094Zm-10.254-7.383h1.86v4.088h-1.832v1.04h9.16v-1.04h-1.832v-4.088h1.873v-1.066H29.41v1.066Zm3.145 4.088v-4.088h2.94v4.088h-2.94Zm19.209 3.364h-4.99v-2.147h3.91v-1.066h-7.479v-1.791h7.191v-3.829h-8.503v1.067h7.218v1.722h-7.191v3.897h3.568v2.146h-4.935V54.2h11.21v-1.093Zm12.1-.055h-2.68v-3.227c.984-.553 1.572-1.422 1.572-2.502 0-1.928-1.894-3.192-4.526-3.199-2.625.007-4.518 1.272-4.511 3.2-.007 1.1.608 1.975 1.613 2.529v3.199h-2.68v1.08h11.211v-1.08Zm-8.888-5.729c0-1.32 1.334-2.16 3.254-2.16 1.908 0 3.261.84 3.268 2.16-.007 1.313-1.36 2.167-3.268 2.174-1.92-.007-3.254-.861-3.254-2.174Zm1.641 5.729v-2.72a7.07 7.07 0 0 0 1.613.177c.588 0 1.142-.062 1.641-.178v2.72h-3.254Zm18.307-9.639h-1.299V55.69h1.299V43.412Zm-9.489 2.16h4.416v2.38H65.45v4.798h1.04c2.166-.007 4.012-.089 6.179-.451l-.123-1.067c-2.05.335-3.78.431-5.77.438v-2.68h4.403v-4.47h-5.743v1.052Zm15.668.957v-2.092h-1.298v2.092c-.007 2.242-1.279 4.594-3.159 5.496l.807 1.053c1.395-.725 2.468-2.194 3.015-3.93.54 1.633 1.572 3 2.905 3.698l.807-1.04c-1.825-.888-3.09-3.11-3.076-5.277Zm3.993 9.133h1.299V49.4h1.968v-1.107h-1.969v-4.88h-1.298v12.25Z"/></svg>